<svg xmlns="http://www.w3.org/2000/svg" width="16" height="16" viewBox="0 0 16 16" fill="none">
    <g clip-path="url(#clip0_2313_1947)">
        <path d="M16 8C16 12.4183 12.4183 16 8 16C3.58172 16 0 12.4183 0 8C0 3.58172 3.58172 0 8 0C12.4183 0 16 3.58172 16 8Z" fill="#1ABB34"/>
        <path fill-rule="evenodd" clip-rule="evenodd" d="M13.2071 4.79289C13.5976 5.18342 13.5976 5.81658 13.2071 6.20711L7.70711 11.7071C7.31658 12.0976 6.68342 12.0976 6.29289 11.7071L3.79289 9.20711C3.40237 8.81658 3.40237 8.18342 3.79289 7.79289C4.18342 7.40237 4.81658 7.40237 5.20711 7.79289L7 9.58579L11.7929 4.79289C12.1834 4.40237 12.8166 4.40237 13.2071 4.79289Z" fill="white"/>
    </g>
    <defs>
        <clipPath id="clip0_2313_1947">
            <rect width="16" height="16" fill="white"/>
        </clipPath>
    </defs>
</svg>