<svg xmlns="http://www.w3.org/2000/svg" width="16" height="16" viewBox="0 0 16 16" fill="none">
    <path d="M15.7714 12.4862L9.52528 1.85544C9.36919 1.59499 9.14637 1.37904 8.87889 1.22899C8.61141 1.07894 8.30856 1 8.00036 1C7.69216 1 7.38931 1.07894 7.12182 1.22899C6.85434 1.37904 6.63152 1.59499 6.47543 1.85544L0.229326 12.4862C0.079145 12.7381 0 13.0247 0 13.3164C0 13.6082 0.079145 13.8947 0.229326 14.1466C0.383411 14.4086 0.605857 14.6258 0.873837 14.7757C1.14182 14.9257 1.44568 15.003 1.75425 14.9999H14.2465C14.5548 15.0028 14.8584 14.9253 15.1261 14.7754C15.3938 14.6254 15.616 14.4084 15.77 14.1466C15.9204 13.8948 15.9997 13.6084 16 13.3166C16.0002 13.0249 15.9214 12.7383 15.7714 12.4862ZM7.42896 6.59999C7.42896 6.45147 7.48916 6.30903 7.59632 6.20401C7.70347 6.099 7.84881 6.04 8.00036 6.04C8.1519 6.04 8.29724 6.099 8.4044 6.20401C8.51155 6.30903 8.57176 6.45147 8.57176 6.59999V9.39996C8.57176 9.54848 8.51155 9.69092 8.4044 9.79594C8.29724 9.90096 8.1519 9.95996 8.00036 9.95996C7.84881 9.95996 7.70347 9.90096 7.59632 9.79594C7.48916 9.69092 7.42896 9.54848 7.42896 9.39996V6.59999ZM8.00036 12.7599C7.83084 12.7599 7.66513 12.7107 7.52418 12.6184C7.38323 12.5261 7.27337 12.3949 7.2085 12.2414C7.14363 12.0879 7.12665 11.919 7.15973 11.7561C7.1928 11.5931 7.27443 11.4434 7.3943 11.326C7.51416 11.2085 7.66688 11.1285 7.83314 11.0961C7.9994 11.0637 8.17174 11.0803 8.32835 11.1439C8.48497 11.2075 8.61883 11.3151 8.71301 11.4533C8.80719 11.5914 8.85746 11.7538 8.85746 11.9199C8.85746 12.1427 8.76715 12.3564 8.60642 12.5139C8.44568 12.6714 8.22767 12.7599 8.00036 12.7599Z" fill="#F29C1C"/>
</svg>